<svg xmlns="http://www.w3.org/2000/svg"  viewBox="0 0 100 100" width="200px" height="200px"><g><circle cx="50" cy="50" r="37" fill="#e6edb7"/><circle cx="83" cy="15" r="4" fill="#f1bc19"/><circle cx="87" cy="24" r="2" fill="#9f8066"/><circle cx="81" cy="76" r="2" fill="#fbcd59"/><circle cx="15" cy="63" r="4" fill="#fbcd59"/><circle cx="25" cy="87" r="2" fill="#9f8066"/><circle cx="19.5" cy="43.5" r="2.5" fill="#fff"/><circle cx="79.5" cy="33.5" r="1.5" fill="#fff"/><g><circle cx="77" cy="13" r="1" fill="#f1bc19"/></g><g><path fill="#1f212b" d="M65.719,73H34.281C30.26,73,27,69.74,27,65.719V34.281C27,30.26,30.26,27,34.281,27h31.438 C69.74,27,73,30.26,73,34.281v31.438C73,69.74,69.74,73,65.719,73z"/></g><g><path fill="#472b29" d="M66.719,27.4c3.243,0,5.881,2.638,5.881,5.881v33.438c0,3.243-2.638,5.881-5.881,5.881H33.281 c-3.243,0-5.881-2.638-5.881-5.881V33.281c0-3.243,2.638-5.881,5.881-5.881H66.719 M66.719,26H33.281C29.26,26,26,29.26,26,33.281 v33.438C26,70.74,29.26,74,33.281,74h33.438C70.74,74,74,70.74,74,66.719V33.281C74,29.26,70.74,26,66.719,26L66.719,26z"/></g><g><path fill="#fff" d="M39.201,43.018c0.599-0.69,1.556-1.15,2.393-1.265c0.12,0.919-0.239,1.839-0.717,2.414 c-0.599,0.69-1.437,1.15-2.393,1.15C38.244,44.512,38.602,43.707,39.201,43.018z"/><path fill="#fff" d="M44.345,54.938c-0.717,0.95-1.675,2.257-2.752,2.257c-1.077,0-1.316-0.713-2.632-0.594 c-1.436,0-1.675,0.713-2.752,0.594c-1.196,0-2.034-1.069-2.632-2.138c-1.795-2.732-2.034-6.058-0.837-7.839 c0.837-1.188,2.034-1.9,3.231-1.9c1.197,0,2.034,0.713,2.991,0.713c0.957,0,1.556-0.713,2.991-0.713 c1.077,0,2.153,0.594,2.991,1.544c-2.632,1.425-2.153,5.108,0.479,6.177C44.944,53.869,44.705,54.225,44.345,54.938z"/></g><g><path fill="#fff" d="M52.038,41.753v3.509h3.128v1.608h-3.128v6.111c0,1.404,0.361,2.222,1.684,2.222 c0.601,0,0.962,0,1.203-0.117l0.12,1.637c-0.361,0.117-1.083,0.234-1.925,0.234c-0.962,0-1.804-0.351-2.406-0.936 c-0.601-0.702-0.842-1.637-0.842-3.041V46.87h-1.804v-1.608h1.804v-2.924L52.038,41.753z"/></g><g><path fill="#fff" d="M58.919,45.262l2.4,6.55c0.36,1.053,0.719,1.988,0.96,3.041h0.12c0.239-0.936,0.6-1.871,0.96-3.041 l2.279-6.55h2.278l-4.679,11.696h-2.039L56.64,45.262H58.919z"/></g></g></svg>