<?xml version="1.0" encoding="iso-8859-1"?>
<!-- Generator: Adobe Illustrator 24.0.2, SVG Export Plug-In . SVG Version: 6.00 Build 0)  -->
<svg version="1.1" xmlns="http://www.w3.org/2000/svg" xmlns:xlink="http://www.w3.org/1999/xlink" x="0px" y="0px"
	 viewBox="0 0 100 100" style="enable-background:new 0 0 100 100;" xml:space="preserve">
<g id="Layer_1">
	<g id="line1">
	</g>
	<g id="line2">
	</g>
</g>
<g id="_x3C_Layer_x3E_">
	<g>
		<path style="fill:#C7EDE6;" d="M86.212,57.157c1.135-2.155,1.785-4.605,1.785-7.21c0-6.621-4.159-12.257-10.001-14.478
			c0-0.008,0.001-0.015,0.001-0.022c0-11.598-9.402-21-21-21c-9.784,0-17.981,6.701-20.313,15.757
			c-1.476-0.485-3.048-0.757-4.687-0.757c-7.692,0-14.023,5.793-14.89,13.252c-5.204,1.1-9.11,5.716-9.11,11.248
			c0,6.351,5.149,11.5,11.5,11.5c0.177,0,0.352-0.012,0.526-0.022c-0.004,0.175-0.026,0.346-0.026,0.522
			c0,11.322,9.178,20.5,20.5,20.5c6.437,0,12.175-2.972,15.934-7.614c2.178,2.225,5.207,3.614,8.566,3.614
			c4.65,0,8.674-2.65,10.666-6.518c1.052,0.334,2.171,0.518,3.334,0.518c6.075,0,11-4.925,11-11
			C89.997,62.136,88.527,59.173,86.212,57.157z"/>
	</g>
	<g>
		<g>
			<path style="fill:#FFFFFF;" d="M14.402,49H4.497c-0.276,0-0.5-0.224-0.5-0.5s0.224-0.5,0.5-0.5h9.905c0.276,0,0.5,0.224,0.5,0.5
				S14.679,49,14.402,49z"/>
		</g>
		<g>
			<path style="fill:#FFFFFF;" d="M17.497,49h-1c-0.276,0-0.5-0.224-0.5-0.5s0.224-0.5,0.5-0.5h1c0.276,0,0.5,0.224,0.5,0.5
				S17.774,49,17.497,49z"/>
		</g>
		<g>
			<path style="fill:#FFFFFF;" d="M22.488,51h-8.991c-0.276,0-0.5-0.224-0.5-0.5s0.224-0.5,0.5-0.5h8.991c0.276,0,0.5,0.224,0.5,0.5
				S22.764,51,22.488,51z"/>
		</g>
		<g>
			<path style="fill:#FFFFFF;" d="M11.497,51h-1c-0.276,0-0.5-0.224-0.5-0.5s0.224-0.5,0.5-0.5h1c0.276,0,0.5,0.224,0.5,0.5
				S11.774,51,11.497,51z"/>
		</g>
		<g>
			<path style="fill:#FFFFFF;" d="M8.497,51h-2c-0.276,0-0.5-0.224-0.5-0.5s0.224-0.5,0.5-0.5h2c0.276,0,0.5,0.224,0.5,0.5
				S8.774,51,8.497,51z"/>
		</g>
		<g>
			<path style="fill:#FFFFFF;" d="M14.497,53h-2c-0.276,0-0.5-0.224-0.5-0.5s0.224-0.5,0.5-0.5h2c0.276,0,0.5,0.224,0.5,0.5
				S14.773,53,14.497,53z"/>
		</g>
		<g>
			<path style="fill:#FFFFFF;" d="M17.497,44c-0.177,0-0.823,0-1,0c-0.276,0-0.5,0.224-0.5,0.5c0,0.276,0.224,0.5,0.5,0.5
				c0.177,0,0.823,0,1,0c0.276,0,0.5-0.224,0.5-0.5C17.997,44.224,17.773,44,17.497,44z"/>
		</g>
		<g>
			<path style="fill:#FFFFFF;" d="M17.497,46c-0.177,0-4.823,0-5,0c-0.276,0-0.5,0.224-0.5,0.5c0,0.276,0.224,0.5,0.5,0.5
				c0.177,0,4.823,0,5,0c0.276,0,0.5-0.224,0.5-0.5C17.997,46.224,17.773,46,17.497,46z"/>
		</g>
		<g>
			<path style="fill:#FFFFFF;" d="M22.497,48c-0.177,0-2.823,0-3,0c-0.276,0-0.5,0.224-0.5,0.5c0,0.276,0.224,0.5,0.5,0.5
				c0.177,0,2.823,0,3,0c0.276,0,0.5-0.224,0.5-0.5C22.997,48.224,22.773,48,22.497,48z"/>
		</g>
	</g>
	<g>
		<g>
			<path style="fill:#FFFFFF;" d="M88.497,66h-10c-0.276,0-0.5-0.224-0.5-0.5s0.224-0.5,0.5-0.5h10c0.276,0,0.5,0.224,0.5,0.5
				S88.773,66,88.497,66z"/>
		</g>
		<g>
			<path style="fill:#FFFFFF;" d="M92.497,66h-2c-0.276,0-0.5-0.224-0.5-0.5s0.224-0.5,0.5-0.5h2c0.276,0,0.5,0.224,0.5,0.5
				S92.773,66,92.497,66z"/>
		</g>
		<g>
			<path style="fill:#FFFFFF;" d="M97.497,68h-10c-0.276,0-0.5-0.224-0.5-0.5s0.224-0.5,0.5-0.5h10c0.276,0,0.5,0.224,0.5,0.5
				S97.774,68,97.497,68z"/>
		</g>
		<g>
			<path style="fill:#FFFFFF;" d="M85.497,68h-1c-0.276,0-0.5-0.224-0.5-0.5s0.224-0.5,0.5-0.5h1c0.276,0,0.5,0.224,0.5,0.5
				S85.773,68,85.497,68z"/>
		</g>
		<g>
			<path style="fill:#FFFFFF;" d="M82.372,68h-1.875c-0.276,0-0.5-0.224-0.5-0.5s0.224-0.5,0.5-0.5h1.875c0.276,0,0.5,0.224,0.5,0.5
				S82.648,68,82.372,68z"/>
		</g>
		<g>
			<path style="fill:#FFFFFF;" d="M91.497,64h-5c-0.276,0-0.5-0.224-0.5-0.5s0.224-0.5,0.5-0.5h5c0.276,0,0.5,0.224,0.5,0.5
				S91.774,64,91.497,64z"/>
		</g>
		<g>
			<path style="fill:#FFFFFF;" d="M88.497,70h-2c-0.276,0-0.5-0.224-0.5-0.5s0.224-0.5,0.5-0.5h2c0.276,0,0.5,0.224,0.5,0.5
				S88.773,70,88.497,70z"/>
		</g>
	</g>
	<g>
		<path style="fill:#1F212B;" d="M69.208,75H35.792C33.145,75,31,72.855,31,70.208V36.792C31,34.145,33.145,32,35.792,32h33.417
			C71.855,32,74,34.145,74,36.792v33.417C74,72.855,71.855,75,69.208,75z"/>
	</g>
	<g>
		<g>
			<path style="fill:#FFFFFF;" d="M42.854,46.501c0.568-0.655,1.477-1.091,2.271-1.2c0.114,0.872-0.227,1.745-0.681,2.29
				c-0.568,0.655-1.364,1.091-2.271,1.091C41.946,47.919,42.286,47.154,42.854,46.501z"/>
		</g>
		<g>
			<path style="fill:#FFFFFF;" d="M47.736,57.812c-0.681,0.902-1.589,2.142-2.612,2.142s-1.249-0.676-2.498-0.564
				c-1.363,0-1.589,0.676-2.612,0.564c-1.135,0-1.93-1.014-2.498-2.029c-1.703-2.592-1.93-5.749-0.795-7.439
				c0.795-1.127,1.93-1.803,3.066-1.803c1.136,0,1.93,0.676,2.838,0.676c0.908,0,1.477-0.676,2.838-0.676
				c1.022,0,2.044,0.564,2.838,1.465c-2.498,1.353-2.044,4.847,0.454,5.861C48.304,56.797,48.077,57.135,47.736,57.812z"/>
		</g>
	</g>
	<g>
		<path style="fill:#FFFFFF;" d="M54.974,45.363v3.33h2.968v1.526h-2.968v5.799c0,1.332,0.342,2.109,1.598,2.109
			c0.571,0,0.913,0,1.141-0.111l0.114,1.554c-0.342,0.111-1.027,0.222-1.826,0.222c-0.913,0-1.712-0.333-2.283-0.888
			c-0.571-0.666-0.799-1.554-0.799-2.886v-5.799h-1.712v-1.526h1.712v-2.775L54.974,45.363z"/>
	</g>
	<g>
		<path style="fill:#FFFFFF;" d="M61.503,48.692l2.277,6.216c0.341,0.999,0.683,1.887,0.911,2.886h0.114
			c0.227-0.888,0.57-1.776,0.911-2.886l2.163-6.216h2.162l-4.44,11.099h-1.935L59.34,48.692H61.503z"/>
	</g>
	<g>
		<path style="fill:#472B29;" d="M68.625,32.4c2.743,0,4.975,2.232,4.975,4.975v32.25c0,2.743-2.232,4.975-4.975,4.975h-32.25
			c-2.743,0-4.975-2.232-4.975-4.975v-32.25c0-2.743,2.232-4.975,4.975-4.975H68.625 M68.625,31h-32.25
			C32.854,31,30,33.854,30,37.375v32.25C30,73.146,32.854,76,36.375,76h32.25C72.146,76,75,73.146,75,69.625v-32.25
			C75,33.854,72.146,31,68.625,31L68.625,31z"/>
	</g>
	<g>
		<g>
			<path style="fill:#FDFCEF;" d="M21,73h-3.003c-1.933-0.053-3.5-1.62-3.5-3.553c0-1.781,1.335-3.234,3.055-3.455
				c-0.028-0.179-0.055-0.358-0.055-0.545c0-1.933,1.567-3.5,3.5-3.5c1.032,0,1.95,0.455,2.59,1.165
				c0.384-1.808,1.987-3.165,3.91-3.165c2.209,0,4,1.791,4,4c0,0.191-0.03,0.374-0.056,0.558c0.428-0.344,0.965-0.558,1.556-0.558
				c1.228,0,2.245,0.887,2.455,2.055c0.179-0.028,0.358-0.055,0.545-0.055c1.933,0,3.5,1.567,3.5,3.5s-1.567,3.5-3.5,3.553H28l0,0
				H21L21,73z"/>
		</g>
		<g>
			<path style="fill:#472B29;" d="M19.747,68.447c0.138,0,0.25-0.112,0.25-0.25c0-1.223-0.995-2.218-2.218-2.218
				c-0.034,0.009-0.737-0.001-1.244,0.136c-0.133,0.036-0.212,0.173-0.176,0.306c0.036,0.134,0.173,0.213,0.306,0.176
				c0.444-0.12,1.1-0.12,1.113-0.118c0.948,0,1.719,0.771,1.719,1.718C19.497,68.335,19.609,68.447,19.747,68.447z"/>
		</g>
		<g>
			<circle style="fill:#472B29;" cx="26.5" cy="72.5" r="0.5"/>
		</g>
		<g>
			<path style="fill:#472B29;" d="M14.165,70.157C14.67,71.889,16.369,73,18.173,73h3.324c0.276,0,0.5-0.224,0.5-0.5
				s-0.224-0.5-0.5-0.5l-3.395,0c-1.243,0-2.435-0.701-2.886-1.859c-0.755-1.939,0.536-3.861,2.399-4.1
				c0.134-0.018,0.255-0.088,0.336-0.196s0.115-0.244,0.094-0.377c-0.024-0.153-0.049-0.308-0.049-0.468c0-1.654,1.346-3,3-3
				c0.85,0,1.638,0.355,2.219,1c0.125,0.139,0.321,0.198,0.5,0.148c0.182-0.049,0.321-0.195,0.36-0.379
				C24.417,61.165,25.856,60,27.497,60c1.93,0,3.5,1.57,3.5,3.5c0,0.143-0.021,0.28-0.041,0.418
				c-0.029,0.203,0.063,0.438,0.242,0.54c0.179,0.102,0.396,0.118,0.556-0.01C32.118,64.155,32.548,64,32.997,64
				c0.966,0,1.792,0.691,1.963,1.644c0.048,0.267,0.296,0.446,0.569,0.405C35.682,66.025,35.837,66,35.997,66
				c1.97,0,3.503,1.908,2.846,3.974C38.447,71.218,37.206,72,35.901,72l-7.404,0c-0.276,0-0.5,0.224-0.5,0.5s0.224,0.5,0.5,0.5
				h7.343c1.92,0,3.687-1.282,4.071-3.163C40.436,67.267,38.476,65,35.997,65c-0.059,0-0.116,0.002-0.174,0.006
				C35.409,63.82,34.286,63,32.997,63c-0.349,0-0.689,0.061-1.011,0.18C31.821,60.847,29.87,59,27.497,59
				c-1.831,0-3.466,1.127-4.153,2.774C22.663,61.276,21.842,61,20.997,61c-2.206,0-4,1.794-4,4c0,0.048,0.001,0.095,0.004,0.142
				C14.899,65.682,13.497,67.869,14.165,70.157z"/>
		</g>
		<g>
			<path style="fill:#472B29;" d="M23.497,72c0.159,0,0.841,0,1,0c0.276,0,0.5,0.224,0.5,0.5c0,0.276-0.224,0.5-0.5,0.5
				c-0.159,0-0.841,0-1,0c-0.276,0-0.5-0.224-0.5-0.5C22.997,72.224,23.221,72,23.497,72z"/>
		</g>
	</g>
	<g>
		<g>
			<path style="fill:#FDFCEF;" d="M80,40h6.003c2.485-0.053,4.5-2.068,4.5-4.553c0-2.333-1.782-4.229-4.055-4.455
				c0.022-0.181,0.055-0.358,0.055-0.545c0-2.485-2.015-4.5-4.5-4.5c-1.438,0-2.703,0.686-3.527,1.736
				c-0.14-2.636-2.302-4.736-4.973-4.736c-2.761,0-5,2.239-5,5c0,0.446,0.077,0.87,0.187,1.282c-0.642-0.777-1.6-1.282-2.687-1.282
				c-1.781,0-3.234,1.335-3.455,3.055c-0.181-0.022-0.358-0.055-0.545-0.055c-2.485,0-4.5,2.015-4.5,4.5s2.015,4.5,4.5,4.553h9.5H77
				v1h3V40z"/>
		</g>
		<g>
			<path style="fill:#472B29;" d="M73.5,22c-3.033,0-5.5,2.467-5.5,5.5c0,0.016,0,0.031,0,0.047C67.398,27.192,66.71,27,66,27
				c-1.831,0-3.411,1.261-3.858,3.005C62.095,30.002,62.048,30,62,30c-3.099,0-5.549,2.834-4.893,6.047
				C57.587,38.398,59.796,40,62.196,40l14.679,0c0.276,0,0.5-0.224,0.5-0.5s-0.224-0.5-0.5-0.5l-14.718,0
				c-1.92,0-3.687-1.282-4.071-3.163C57.561,33.267,59.521,31,62,31c0.117,0,0.23,0.017,0.343,0.032l0.141,0.019
				c0.021,0.003,0.041,0.004,0.062,0.004c0.246,0,0.462-0.185,0.495-0.437C63.232,29.125,64.504,28,66,28
				c0.885,0,1.723,0.401,2.301,1.1c0.098,0.118,0.241,0.182,0.386,0.182c0.078,0,0.156-0.018,0.228-0.056
				c0.209-0.107,0.314-0.346,0.254-0.573c-0.16-0.6-0.202-1.069-0.147-1.549c0.24-2.127,1.959-3.909,4.092-4.088
				c2.551-0.215,4.725,1.728,4.859,4.246c0.011,0.208,0.15,0.387,0.349,0.45c0.05,0.016,0.101,0.024,0.152,0.024
				c0.15,0,0.296-0.069,0.392-0.192C79.638,26.563,80.779,26,82,26c2.206,0,4,1.794,4,4c0,0.117-0.017,0.23-0.032,0.343
				l-0.019,0.141c-0.016,0.134,0.022,0.268,0.106,0.373c0.084,0.105,0.207,0.172,0.34,0.185c2.352,0.234,4.042,2.429,3.504,4.865
				C89.491,37.76,87.725,39,85.827,39l-5.952,0c-0.276,0-0.5,0.224-0.5,0.5s0.224,0.5,0.5,0.5l5.938,0
				c2.467,0,4.708-1.704,5.115-4.138c0.462-2.763-1.344-5.22-3.931-5.74C86.999,30.082,87,30.041,87,30c0-2.757-2.243-5-5-5
				c-1.176,0-2.293,0.416-3.183,1.164C78.219,23.76,76.055,22,73.5,22L73.5,22z"/>
		</g>
		<g>
			<path style="fill:#472B29;" d="M72.003,29.447c-1.403,0-2.609,0.999-2.913,2.341c-0.367-0.222-0.786-0.341-1.212-0.341
				c-1.202,0-2.198,0.897-2.353,2.068c-0.203-0.045-0.396-0.068-0.585-0.068c-1.529,0-2.811,1.2-2.918,2.732
				c-0.009,0.138,0.094,0.257,0.232,0.267c0.006,0,0.012,0,0.018,0c0.13,0,0.24-0.101,0.249-0.232
				c0.089-1.271,1.151-2.268,2.419-2.268c0.229,0,0.47,0.042,0.738,0.127c0.022,0.007,0.045,0.01,0.067,0.01
				c0.055,0,0.11-0.02,0.156-0.054c0.064-0.047,0.102-0.129,0.102-0.209c0-1.034,0.841-1.875,1.875-1.875
				c0.447,0,0.885,0.168,1.231,0.473c0.047,0.041,0.106,0.063,0.165,0.063c0.032,0,0.063-0.006,0.093-0.019
				c0.088-0.035,0.148-0.117,0.155-0.212c0.102-1.292,1.191-2.305,2.479-2.305c0.208,0,0.425,0.034,0.682,0.107
				c0.023,0.007,0.047,0.01,0.07,0.01c0.109,0,0.207-0.073,0.239-0.182c0.038-0.133-0.039-0.271-0.172-0.309
				C72.52,29.487,72.259,29.447,72.003,29.447L72.003,29.447z"/>
		</g>
	</g>
</g>
</svg>
