<?xml version="1.0" encoding="UTF-8" standalone="no"?>
<!-- Created with Inkscape (http://www.inkscape.org/) -->

<svg
   xmlns:dc="http://purl.org/dc/elements/1.1/"
   xmlns:cc="http://creativecommons.org/ns#"
   xmlns:rdf="http://www.w3.org/1999/02/22-rdf-syntax-ns#"
   xmlns:svg="http://www.w3.org/2000/svg"
   xmlns="http://www.w3.org/2000/svg"
   xmlns:sodipodi="http://sodipodi.sourceforge.net/DTD/sodipodi-0.dtd"
   xmlns:inkscape="http://www.inkscape.org/namespaces/inkscape"
   width="48pt"
   height="48pt"
   viewBox="0 0 16.933334 16.933333"
   version="1.1"
   id="svg979"
   inkscape:version="0.92.4 (5da689c313, 2019-01-14)"
   sodipodi:docname="20 - Movie Poster.svg"
   inkscape:export-filename="E:\TR Design Studio Creative\Project Design\TR Creative Design\Icon Design\Project Hiring\Icon Icons\004 - Cinema\Send\04 - Filled Line\19 - Blueray Disc.png"
   inkscape:export-xdpi="768"
   inkscape:export-ydpi="768">
  <defs
     id="defs973" />
  <sodipodi:namedview
     id="base"
     pagecolor="#ffffff"
     bordercolor="#666666"
     borderopacity="1.0"
     inkscape:pageopacity="0.0"
     inkscape:pageshadow="2"
     inkscape:zoom="8.078125"
     inkscape:cx="32"
     inkscape:cy="32"
     inkscape:document-units="pt"
     inkscape:current-layer="layer1"
     showgrid="false"
     units="pt"
     inkscape:window-width="1366"
     inkscape:window-height="716"
     inkscape:window-x="-8"
     inkscape:window-y="-8"
     inkscape:window-maximized="1"
     inkscape:snap-bbox="true"
     inkscape:bbox-nodes="true"
     inkscape:snap-nodes="false"
     showguides="false">
    <inkscape:grid
       type="xygrid"
       id="grid1526" />
    <sodipodi:guide
       position="0.97013909,15.963209"
       orientation="56.666615,0"
       id="guide1528"
       inkscape:locked="false" />
    <sodipodi:guide
       position="0.97013909,0.97016731"
       orientation="0,56.666667"
       id="guide1530"
       inkscape:locked="false" />
    <sodipodi:guide
       position="15.963195,0.97016731"
       orientation="-56.666615,0"
       id="guide1532"
       inkscape:locked="false" />
    <sodipodi:guide
       position="15.963195,15.963209"
       orientation="0,-56.666667"
       id="guide1534"
       inkscape:locked="false" />
  </sodipodi:namedview>
  <metadata
     id="metadata976">
    <rdf:RDF>
      <cc:Work
         rdf:about="">
        <dc:format>image/svg+xml</dc:format>
        <dc:type
           rdf:resource="http://purl.org/dc/dcmitype/StillImage" />
        <dc:title></dc:title>
      </cc:Work>
    </rdf:RDF>
  </metadata>
  <g
     inkscape:label="Layer 1"
     inkscape:groupmode="layer"
     id="layer1"
     transform="translate(0,-280.06668)">
    <g
       id="g8072"
       transform="matrix(1.2477912,0,0,1.2477912,-53.186836,-131.12995)"
       style="stroke-width:0.80141616">
      <g
         id="g1742"
         transform="translate(-0.96605235,45.676232)"
         style="stroke-width:0.80141616">
        <g
           id="g1728"
           style="stroke-width:0.80141616">
          <path
             inkscape:connector-curvature="0"
             id="path1228"
             d="m 46.38222,285.62279 a 0.26460996,0.26460996 0 0 0 -0.263672,0.26367 v 0.48828 1.71484 5.14258 1.71485 0.48828 a 0.26460996,0.26460996 0 0 0 0.263672,0.26367 h 0.5 1.714843 3.583985 1.71289 0.464844 a 0.26460996,0.26460996 0 0 0 0.263672,-0.26367 v -0.46485 -1.72656 -5.16602 -1.72656 -0.46484 a 0.26460996,0.26460996 0 0 0 -0.263672,-0.26367 h -0.464844 -1.701171 -3.607422 -1.714844 z"
             style="color:#000000;font-style:normal;font-variant:normal;font-weight:normal;font-stretch:normal;font-size:medium;line-height:normal;font-family:sans-serif;font-variant-ligatures:normal;font-variant-position:normal;font-variant-caps:normal;font-variant-numeric:normal;font-variant-alternates:normal;font-feature-settings:normal;text-indent:0;text-align:start;text-decoration:none;text-decoration-line:none;text-decoration-style:solid;text-decoration-color:#000000;letter-spacing:normal;word-spacing:normal;text-transform:none;writing-mode:lr-tb;direction:ltr;text-orientation:mixed;dominant-baseline:auto;baseline-shift:baseline;text-anchor:start;white-space:normal;shape-padding:0;clip-rule:nonzero;display:inline;overflow:visible;visibility:visible;isolation:auto;mix-blend-mode:normal;color-interpolation:sRGB;color-interpolation-filters:linearRGB;solid-color:#000000;solid-opacity:1;vector-effect:none;fill:#ffd180;fill-opacity:1;fill-rule:nonzero;stroke:none;stroke-width:0.42408296;stroke-linecap:round;stroke-linejoin:round;stroke-miterlimit:4;stroke-dasharray:none;stroke-dashoffset:0;stroke-opacity:1;color-rendering:auto;image-rendering:auto;shape-rendering:auto;text-rendering:auto;enable-background:accumulate" />
          <path
             inkscape:connector-curvature="0"
             d="m 46.382163,285.62266 a 0.26460995,0.26460995 0 0 0 -0.247014,0.1726 c 0.619015,1.14336 3.253055,2.24904 4.00389,2.78536 1.110562,0.79325 3.207706,4.57213 4.483448,5.89938 v -1.2361 -5.1661 -1.72651 -0.46508 a 0.26460995,0.26460995 0 0 0 -0.26355,-0.26355 h -0.465088 -1.701188 -3.607532 -1.714624 z"
             style="fill:#e5bd75;fill-opacity:1;stroke:none;stroke-width:0.42408296;stroke-linecap:round;stroke-linejoin:round;stroke-opacity:1"
             id="path1247" />
          <path
             inkscape:connector-curvature="0"
             id="path1107"
             d="m 45.293186,287.08371 c -0.179541,0.17955 -0.179541,0.4806 7e-6,0.66015 l 0.573146,0.57315 c 0.179555,0.17955 0.479213,0.17817 0.658762,-10e-4 l 2.291195,-2.2912 c 0.179556,-0.17955 0.179549,-0.47783 0,-0.65738 l -0.573145,-0.57353 c -0.179563,-0.17956 -0.479221,-0.18093 -0.658769,-0.001 z"
             style="color:#000000;font-style:normal;font-variant:normal;font-weight:normal;font-stretch:normal;font-size:medium;line-height:normal;font-family:sans-serif;font-variant-ligatures:normal;font-variant-position:normal;font-variant-caps:normal;font-variant-numeric:normal;font-variant-alternates:normal;font-feature-settings:normal;text-indent:0;text-align:start;text-decoration:none;text-decoration-line:none;text-decoration-style:solid;text-decoration-color:#000000;letter-spacing:normal;word-spacing:normal;text-transform:none;writing-mode:lr-tb;direction:ltr;text-orientation:mixed;dominant-baseline:auto;baseline-shift:baseline;text-anchor:start;white-space:normal;shape-padding:0;clip-rule:nonzero;display:inline;overflow:visible;visibility:visible;isolation:auto;mix-blend-mode:normal;color-interpolation:sRGB;color-interpolation-filters:linearRGB;solid-color:#000000;solid-opacity:1;vector-effect:none;fill:#3e3e3e;fill-opacity:1;fill-rule:nonzero;stroke:none;stroke-width:0.42408296;stroke-linecap:round;stroke-linejoin:round;stroke-miterlimit:4;stroke-dasharray:none;stroke-dashoffset:0;stroke-opacity:1;color-rendering:auto;image-rendering:auto;shape-rendering:auto;text-rendering:auto;enable-background:accumulate" />
          <path
             inkscape:connector-curvature="0"
             id="path1121"
             d="m 51.965128,295.2693 c -0.186153,0.18616 -0.186132,0.49887 7e-6,0.68501 l 0.548283,0.54829 c 0.186139,0.18613 0.498871,0.18613 0.685003,0 l 2.266334,-2.26634 c 0.186146,-0.18614 0.184753,-0.49749 -0.0014,-0.68362 l -0.548284,-0.54829 c -0.186146,-0.18614 -0.497499,-0.18751 -0.68363,-10e-4 z"
             style="color:#000000;font-style:normal;font-variant:normal;font-weight:normal;font-stretch:normal;font-size:medium;line-height:normal;font-family:sans-serif;font-variant-ligatures:normal;font-variant-position:normal;font-variant-caps:normal;font-variant-numeric:normal;font-variant-alternates:normal;font-feature-settings:normal;text-indent:0;text-align:start;text-decoration:none;text-decoration-line:none;text-decoration-style:solid;text-decoration-color:#000000;letter-spacing:normal;word-spacing:normal;text-transform:none;writing-mode:lr-tb;direction:ltr;text-orientation:mixed;dominant-baseline:auto;baseline-shift:baseline;text-anchor:start;white-space:normal;shape-padding:0;clip-rule:nonzero;display:inline;overflow:visible;visibility:visible;isolation:auto;mix-blend-mode:normal;color-interpolation:sRGB;color-interpolation-filters:linearRGB;solid-color:#000000;solid-opacity:1;vector-effect:none;fill:#3e3e3e;fill-opacity:1;fill-rule:nonzero;stroke:none;stroke-width:0.42408296;stroke-linecap:round;stroke-linejoin:round;stroke-miterlimit:4;stroke-dasharray:none;stroke-dashoffset:0;stroke-opacity:1;color-rendering:auto;image-rendering:auto;shape-rendering:auto;text-rendering:auto;enable-background:accumulate" />
          <path
             inkscape:connector-curvature="0"
             id="path1128"
             d="m 48.825962,295.29279 c 0.172952,0.17295 0.172966,0.46508 0,0.63805 l -0.596621,0.59662 c -0.172951,0.17295 -0.463713,0.17158 -0.636672,-0.001 l -2.313293,-2.31329 c -0.172951,-0.17296 -0.172965,-0.46233 0,-0.6353 l 0.596622,-0.59662 c 0.172958,-0.17296 0.463713,-0.17434 0.636672,-10e-4 z"
             style="color:#000000;font-style:normal;font-variant:normal;font-weight:normal;font-stretch:normal;font-size:medium;line-height:normal;font-family:sans-serif;font-variant-ligatures:normal;font-variant-position:normal;font-variant-caps:normal;font-variant-numeric:normal;font-variant-alternates:normal;font-feature-settings:normal;text-indent:0;text-align:start;text-decoration:none;text-decoration-line:none;text-decoration-style:solid;text-decoration-color:#000000;letter-spacing:normal;word-spacing:normal;text-transform:none;writing-mode:lr-tb;direction:ltr;text-orientation:mixed;dominant-baseline:auto;baseline-shift:baseline;text-anchor:start;white-space:normal;shape-padding:0;clip-rule:nonzero;display:inline;overflow:visible;visibility:visible;isolation:auto;mix-blend-mode:normal;color-interpolation:sRGB;color-interpolation-filters:linearRGB;solid-color:#000000;solid-opacity:1;vector-effect:none;fill:#3e3e3e;fill-opacity:1;fill-rule:nonzero;stroke:none;stroke-width:0.42408296;stroke-linecap:round;stroke-linejoin:round;stroke-miterlimit:4;stroke-dasharray:none;stroke-dashoffset:0;stroke-opacity:1;color-rendering:auto;image-rendering:auto;shape-rendering:auto;text-rendering:auto;enable-background:accumulate" />
          <path
             inkscape:connector-curvature="0"
             id="path1115"
             d="m 55.467519,287.08786 c 0.172966,0.17296 0.172966,0.46233 0,0.63529 l -0.596621,0.59662 c -0.172965,0.17297 -0.462327,0.17297 -0.635293,0 l -2.314672,-2.31467 c -0.172958,-0.17296 -0.172958,-0.46233 0,-0.63529 l 0.596622,-0.59662 c 0.172951,-0.17296 0.462327,-0.17297 0.635293,0 z"
             style="color:#000000;font-style:normal;font-variant:normal;font-weight:normal;font-stretch:normal;font-size:medium;line-height:normal;font-family:sans-serif;font-variant-ligatures:normal;font-variant-position:normal;font-variant-caps:normal;font-variant-numeric:normal;font-variant-alternates:normal;font-feature-settings:normal;text-indent:0;text-align:start;text-decoration:none;text-decoration-line:none;text-decoration-style:solid;text-decoration-color:#000000;letter-spacing:normal;word-spacing:normal;text-transform:none;writing-mode:lr-tb;direction:ltr;text-orientation:mixed;dominant-baseline:auto;baseline-shift:baseline;text-anchor:start;white-space:normal;shape-padding:0;clip-rule:nonzero;display:inline;overflow:visible;visibility:visible;isolation:auto;mix-blend-mode:normal;color-interpolation:sRGB;color-interpolation-filters:linearRGB;solid-color:#000000;solid-opacity:1;vector-effect:none;fill:#3e3e3e;fill-opacity:1;fill-rule:nonzero;stroke:none;stroke-width:0.42408296;stroke-linecap:round;stroke-linejoin:round;stroke-miterlimit:4;stroke-dasharray:none;stroke-dashoffset:0;stroke-opacity:1;color-rendering:auto;image-rendering:auto;shape-rendering:auto;text-rendering:auto;enable-background:accumulate" />
          <path
             inkscape:connector-curvature="0"
             id="path1180"
             d="m 51.177142,290.92552 a 0.26460996,0.26460996 0 0 0 -0.25586,0.33008 l 0.529297,2.11914 a 0.26460996,0.26460996 0 0 0 0.255859,0.19922 h 1.060547 a 0.26460996,0.26460996 0 0 0 0.25586,-0.19922 l 0.529297,-2.11914 a 0.26460996,0.26460996 0 0 0 -0.25586,-0.33008 z"
             style="color:#000000;font-style:normal;font-variant:normal;font-weight:normal;font-stretch:normal;font-size:medium;line-height:normal;font-family:sans-serif;font-variant-ligatures:normal;font-variant-position:normal;font-variant-caps:normal;font-variant-numeric:normal;font-variant-alternates:normal;font-feature-settings:normal;text-indent:0;text-align:start;text-decoration:none;text-decoration-line:none;text-decoration-style:solid;text-decoration-color:#000000;letter-spacing:normal;word-spacing:normal;text-transform:none;writing-mode:lr-tb;direction:ltr;text-orientation:mixed;dominant-baseline:auto;baseline-shift:baseline;text-anchor:start;white-space:normal;shape-padding:0;clip-rule:nonzero;display:inline;overflow:visible;visibility:visible;isolation:auto;mix-blend-mode:normal;color-interpolation:sRGB;color-interpolation-filters:linearRGB;solid-color:#000000;solid-opacity:1;vector-effect:none;fill:#ef5350;fill-opacity:1;fill-rule:nonzero;stroke:none;stroke-width:0.42408296;stroke-linecap:round;stroke-linejoin:round;stroke-miterlimit:4;stroke-dasharray:none;stroke-dashoffset:0;stroke-opacity:1;color-rendering:auto;image-rendering:auto;shape-rendering:auto;text-rendering:auto;enable-background:accumulate" />
          <path
             inkscape:connector-curvature="0"
             d="m 51.177219,290.92569 a 0.26460995,0.26460995 0 0 0 -0.255799,0.3297 l 0.04961,0.19947 h 1.796273 a 0.26460995,0.26460995 0 0 1 0.255799,0.32969 l -0.447002,1.78956 h 0.190686 a 0.26460995,0.26460995 0 0 0 0.256316,-0.19947 l 0.529165,-2.11925 a 0.26460995,0.26460995 0 0 0 -0.255797,-0.3297 z"
             style="color:#000000;font-style:normal;font-variant:normal;font-weight:normal;font-stretch:normal;font-size:medium;line-height:normal;font-family:sans-serif;font-variant-ligatures:normal;font-variant-position:normal;font-variant-caps:normal;font-variant-numeric:normal;font-variant-alternates:normal;font-feature-settings:normal;text-indent:0;text-align:start;text-decoration:none;text-decoration-line:none;text-decoration-style:solid;text-decoration-color:#000000;letter-spacing:normal;word-spacing:normal;text-transform:none;writing-mode:lr-tb;direction:ltr;text-orientation:mixed;dominant-baseline:auto;baseline-shift:baseline;text-anchor:start;white-space:normal;shape-padding:0;clip-rule:nonzero;display:inline;overflow:visible;visibility:visible;isolation:auto;mix-blend-mode:normal;color-interpolation:sRGB;color-interpolation-filters:linearRGB;solid-color:#000000;solid-opacity:1;vector-effect:none;fill:#d64946;fill-opacity:1;fill-rule:nonzero;stroke:none;stroke-width:0.42408296;stroke-linecap:round;stroke-linejoin:round;stroke-miterlimit:4;stroke-dasharray:none;stroke-dashoffset:0;stroke-opacity:1;color-rendering:auto;image-rendering:auto;shape-rendering:auto;text-rendering:auto;enable-background:accumulate"
             id="path1252" />
          <path
             inkscape:connector-curvature="0"
             id="path1203-6"
             d="m 53.464965,291.307 c -0.04927,0.0499 -0.116336,0.0782 -0.186464,0.0787 l -2.086793,-10e-4 c -0.07041,2.2e-4 -0.137995,-0.0276 -0.187807,-0.0774 -0.252268,-0.25227 -0.316204,-0.56092 -0.15883,-0.8811 0.117634,-0.23926 0.387841,-0.29563 0.640822,-0.34251 0.04824,-0.22605 0.123008,-0.45518 0.327313,-0.57314 0.258341,-0.14917 0.578646,-0.14911 0.836924,0 0.20224,0.11683 0.272272,0.34737 0.320412,0.57176 0.255541,0.0424 0.528859,0.0945 0.650474,0.3356 0.162055,0.32133 0.09842,0.63492 -0.156058,0.88939 z"
             style="color:#000000;font-style:normal;font-variant:normal;font-weight:normal;font-stretch:normal;font-size:medium;line-height:normal;font-family:sans-serif;font-variant-ligatures:normal;font-variant-position:normal;font-variant-caps:normal;font-variant-numeric:normal;font-variant-alternates:normal;font-feature-settings:normal;text-indent:0;text-align:start;text-decoration:none;text-decoration-line:none;text-decoration-style:solid;text-decoration-color:#000000;letter-spacing:normal;word-spacing:normal;text-transform:none;writing-mode:lr-tb;direction:ltr;text-orientation:mixed;dominant-baseline:auto;baseline-shift:baseline;text-anchor:start;white-space:normal;shape-padding:0;clip-rule:nonzero;display:inline;overflow:visible;visibility:visible;isolation:auto;mix-blend-mode:normal;color-interpolation:sRGB;color-interpolation-filters:linearRGB;solid-color:#000000;solid-opacity:1;vector-effect:none;fill:#ffe0b2;fill-opacity:1;fill-rule:nonzero;stroke:none;stroke-width:0.42408296;stroke-linecap:round;stroke-linejoin:round;stroke-miterlimit:4;stroke-dasharray:none;stroke-dashoffset:0;stroke-opacity:1;color-rendering:auto;image-rendering:auto;shape-rendering:auto;text-rendering:auto;enable-background:accumulate"
             sodipodi:nodetypes="ccccccsccccc" />
          <path
             inkscape:connector-curvature="0"
             sodipodi:nodetypes="scccccccccccss"
             d="m 52.231934,289.39865 c -0.144654,0 -0.289408,0.0376 -0.418579,0.11214 -0.163576,0.0944 -0.243153,0.2604 -0.293523,0.43873 0.202024,-0.045 0.41711,-0.0157 0.600997,0.0904 0.202241,0.11683 0.272254,0.34715 0.320394,0.57154 0.255541,0.0424 0.528992,0.0943 0.650607,0.33538 0.08236,0.16332 0.105624,0.27773 0.07596,0.45031 h 0.110588 c 0.07021,-5.6e-4 0.13732,-0.029 0.186551,-0.0791 0.254244,-0.25448 0.318057,-0.5792 0.156062,-0.90041 -0.121615,-0.2411 -0.395064,-0.29298 -0.650605,-0.33538 -0.04814,-0.22439 -0.118154,-0.45471 -0.320394,-0.57154 -0.129139,-0.0745 -0.273408,-0.11213 -0.418062,-0.11214 z"
             style="color:#000000;font-style:normal;font-variant:normal;font-weight:normal;font-stretch:normal;font-size:medium;line-height:normal;font-family:sans-serif;font-variant-ligatures:normal;font-variant-position:normal;font-variant-caps:normal;font-variant-numeric:normal;font-variant-alternates:normal;font-feature-settings:normal;text-indent:0;text-align:start;text-decoration:none;text-decoration-line:none;text-decoration-style:solid;text-decoration-color:#000000;letter-spacing:normal;word-spacing:normal;text-transform:none;writing-mode:lr-tb;direction:ltr;text-orientation:mixed;dominant-baseline:auto;baseline-shift:baseline;text-anchor:start;white-space:normal;shape-padding:0;clip-rule:nonzero;display:inline;overflow:visible;visibility:visible;isolation:auto;mix-blend-mode:normal;color-interpolation:sRGB;color-interpolation-filters:linearRGB;solid-color:#000000;solid-opacity:1;vector-effect:none;fill:#e5ca9f;fill-opacity:1;fill-rule:nonzero;stroke:none;stroke-width:0.42408296;stroke-linecap:round;stroke-linejoin:round;stroke-miterlimit:4;stroke-dasharray:none;stroke-dashoffset:0;stroke-opacity:1;color-rendering:auto;image-rendering:auto;shape-rendering:auto;text-rendering:auto;enable-background:accumulate"
             id="path1258" />
        </g>
        <path
           inkscape:connector-curvature="0"
           id="rect1001"
           style="color:#000000;font-style:normal;font-variant:normal;font-weight:normal;font-stretch:normal;font-size:medium;line-height:normal;font-family:sans-serif;font-variant-ligatures:normal;font-variant-position:normal;font-variant-caps:normal;font-variant-numeric:normal;font-variant-alternates:normal;font-feature-settings:normal;text-indent:0;text-align:start;text-decoration:none;text-decoration-line:none;text-decoration-style:solid;text-decoration-color:#000000;letter-spacing:normal;word-spacing:normal;text-transform:none;writing-mode:lr-tb;direction:ltr;text-orientation:mixed;dominant-baseline:auto;baseline-shift:baseline;text-anchor:start;white-space:normal;shape-padding:0;clip-rule:nonzero;display:inline;overflow:visible;visibility:visible;isolation:auto;mix-blend-mode:normal;color-interpolation:sRGB;color-interpolation-filters:linearRGB;solid-color:#000000;solid-opacity:1;vector-effect:none;fill:#000000;fill-opacity:1;fill-rule:nonzero;stroke:none;stroke-width:0.42408296;stroke-linecap:round;stroke-linejoin:round;stroke-miterlimit:4;stroke-dasharray:none;stroke-dashoffset:0;stroke-opacity:1;color-rendering:auto;image-rendering:auto;shape-rendering:auto;text-rendering:auto;enable-background:accumulate"
           d="m 52.835533,284.64087 c -0.115758,0 -0.231336,0.0432 -0.317809,0.1297 l -0.597379,0.59738 c -0.07017,0.0702 -0.110273,0.15962 -0.123508,0.2527 h -2.852539 c -0.01458,-0.0948 -0.05618,-0.18537 -0.12764,-0.25683 l -0.572577,-0.57258 c -0.179544,-0.17955 -0.481396,-0.17955 -0.66094,0 l -0.829408,0.82941 H 46.38373 c -0.0091,-5.3e-4 -0.01826,-5.3e-4 -0.02739,0 -0.135625,0.0134 -0.238556,0.12778 -0.238228,0.26407 v 0.37155 l -0.82424,0.82424 c -0.179544,0.17954 -0.179544,0.4814 0,0.66094 l 0.572058,0.57258 c 0.07017,0.0702 0.159271,0.11179 0.252182,0.12712 v 4.41368 c -0.08937,0.0148 -0.174783,0.0549 -0.242363,0.12248 l -0.597379,0.59738 c -0.172948,0.17295 -0.172948,0.46319 0,0.63613 l 0.839742,0.83975 v 0.38343 c 2.64e-4,0.14639 0.119224,0.26479 0.265616,0.26407 h 0.382407 l 0.826823,0.82682 c 0.172953,0.17295 0.462658,0.17296 0.635619,0 l 0.597379,-0.59738 c 0.06433,-0.0643 0.104966,-0.14476 0.121441,-0.22944 h 2.886644 c 0.01717,0.0934 0.06093,0.18237 0.131776,0.25321 l 0.548804,0.54881 c 0.186147,0.18616 0.497019,0.18615 0.683162,0 l 0.802018,-0.80202 h 0.359667 c 0.145629,-2.6e-4 0.263189,-0.11844 0.263551,-0.26407 v -0.35915 l 0.840774,-0.84077 c 0.186145,-0.18614 0.186145,-0.49702 0,-0.68316 l -0.548804,-0.54881 c -0.08054,-0.0805 -0.184687,-0.12428 -0.29197,-0.13539 v -4.42557 c 0.09122,-0.014 0.17866,-0.0541 0.247531,-0.12299 l 0.597379,-0.59738 c 0.172947,-0.17295 0.172955,-0.46318 0,-0.63614 l -0.84491,-0.84491 v -0.35501 c -2.64e-4,-0.14564 -0.117917,-0.26371 -0.263551,-0.26407 h -0.35605 l -0.850077,-0.85008 c -0.08647,-0.0865 -0.202052,-0.1297 -0.31781,-0.1297 z m 0,0.56068 2.2009,2.20142 -0.483693,0.48369 -2.2009,-2.2009 z m -4.921663,0.009 0.483691,0.48369 -2.2009,2.2009 -0.484208,-0.48369 z m 0.778246,0.93844 h 3.373437 l 2.027786,2.02779 v 4.96197 l -2.029336,2.02933 h -3.362068 l -2.054138,-2.05465 v -4.92012 z m -0.454753,1.06712 a 0.26540214,0.26540214 0 0 0 0.02532,0.5302 h 3.179133 a 0.26510001,0.26510001 0 1 0 0,-0.5302 h -3.179134 a 0.26460995,0.26460995 0 0 0 -0.02532,0 z m 4.287594,1.05937 a 0.26460995,0.26460995 0 0 0 -0.02326,5.3e-4 H 48.26268 a 0.26460995,0.26460995 0 0 0 -0.02532,0 0.26460995,0.26460995 0 0 0 0.02532,0.52813 h 4.239016 a 0.26460995,0.26460995 0 1 0 0.02326,-0.52865 z m -2.119767,1.05988 a 0.26460995,0.26460995 0 0 0 -0.02273,5.3e-4 h -2.119768 a 0.26460995,0.26460995 0 0 0 -0.02532,0 0.26460995,0.26460995 0 0 0 0.02532,0.52762 h 2.119767 a 0.26460995,0.26460995 0 1 0 0.02273,-0.52814 z m 1.826762,0.0605 c -0.144639,0 -0.289435,0.0376 -0.418578,0.11214 -0.180557,0.10424 -0.311201,0.27101 -0.374656,0.46354 -0.252708,0.0485 -0.475025,0.2127 -0.592727,0.45217 -0.140713,0.28628 -0.104611,0.62583 0.08475,0.87488 l 0.519348,2.07274 a 0.26460995,0.26460995 0 0 0 0.257865,0.20154 h 1.057817 a 0.26460995,0.26460995 0 0 0 0.257866,-0.20154 l 0.521414,-2.08256 c 0.185397,-0.25043 0.219226,-0.58827 0.07596,-0.8723 -0.119877,-0.23769 -0.34466,-0.39835 -0.597379,-0.44493 -0.06288,-0.19253 -0.192548,-0.3593 -0.373105,-0.46354 -0.129143,-0.0746 -0.273939,-0.11214 -0.418579,-0.11214 z m -0.0011,0.5302 c 0.05292,0 0.105831,0.0138 0.15348,0.0413 0.07578,0.0438 0.127225,0.11567 0.145727,0.19844 -0.03332,0.16229 0.07912,0.35704 0.298691,0.32401 0.13204,-0.0197 0.259246,0.0456 0.31936,0.16485 0.0438,0.0868 0.0428,0.18498 0.0031,0.26872 h -1.832446 c -0.03956,-0.0826 -0.04095,-0.17921 0.0016,-0.26562 0.05555,-0.11305 0.172386,-0.17695 0.296622,-0.16846 0.145282,0.0216 0.307885,-0.0617 0.30799,-0.25787 3e-6,-0.11004 0.05715,-0.20905 0.152445,-0.26407 0.04765,-0.0276 0.100563,-0.0413 0.15348,-0.0413 z m -0.714684,1.52756 h 1.441256 l -0.396875,1.58956 h -0.647508 z m -3.253547,0.52968 a 0.26493208,0.26493208 0 1 0 0,0.52969 h 2.119767 a 0.26493208,0.26493208 0 1 0 0,-0.52969 z m 0,1.05988 a 0.26493708,0.26493708 0 1 0 0,0.52969 h 2.119767 a 0.26493708,0.26493708 0 1 0 0,-0.52969 z m 6.310725,0.36432 0.48524,0.48525 -2.202449,2.20245 -0.485241,-0.48525 z m -8.379852,0.002 2.201418,2.2009 -0.484208,0.48369 -2.2009,-2.2009 z" />
      </g>
    </g>
  </g>
</svg>
